<?xml version="1.0" encoding="UTF-8"?>
<svg width="16px" height="16px" version="1.1" viewBox="0 0 16 16" xmlns="http://www.w3.org/2000/svg">
 <path d="m8 2c-3.6484 0.003906-6.832 2.4766-7.7383 6.0078 0.91406 3.5273 4.0977 5.9883 7.7383 5.9922 0.04656-5e-5 0.092428-0.0027 0.13867-0.0039v-1.5234c0-0.1741 0.032445-0.3336 0.089844-0.48047-0.075763 0.004556-0.15169 0.007806-0.22852 0.007806-2.2109 0-4-1.7891-4-4 0-2.2109 1.7891-4 4-4 1.9684 0 3.5969 1.4197 3.9316 3.291 0.17059-0.0259 0.34191-0.041016 0.51367-0.041016 0.58962 0 1.1801 0.15231 1.709 0.45898 0.53336 0.30861 0.96415 0.75011 1.2598 1.2695 0.12773-0.31924 0.23704-0.65017 0.32422-0.99023-0.91406-3.5234-4.0977-5.9844-7.7383-5.9883z" fill="#FFFFFF"/>
 <path d="m10 8c0 1.1055-0.89453 2-2 2s-2-0.89453-2-2 0.89453-2 2-2 2 0.89453 2 2z" fill="#FFFFFF"/>
 <path d="m12.444 8c-0.4618 0-0.92014 0.11806-1.3333 0.35764-0.82292 0.47569-1.3333 1.3542-1.3333 2.3056v0.8993c-0.49306 0.01389-0.88889 0.41319-0.88889 0.90972v2.6389c0 0.46528 0.44792 0.88889 0.88889 0.88889h5.3333c0.45833 0 0.88889-0.40972 0.88889-0.88889v-2.6389c0-0.49653-0.39583-0.89583-0.88889-0.90972v-0.8993c0-0.95139-0.51042-1.8299-1.3333-2.3056-0.4132-0.23958-0.87153-0.35764-1.3333-0.35764zm0 1.4618c0.2257 0 0.44792 0.055556 0.64931 0.17014 0.40278 0.23264 0.64931 0.66319 0.64931 1.1285v0.79514h-2.5972v-0.80208c0-0.4618 0.24653-0.88889 0.64931-1.1215 0.20139-0.11458 0.42361-0.17014 0.6493-0.17014z" stroke-width=".88889" fill="#FFFFFF"/>
</svg>
